HIERARCHY
ROOT Hips
{
  OFFSET 0 0 0
  CHANNELS 6 Xposition Yposition Zposition Zrotation Yrotation Xrotation
  JOINT LeftThigh
  {
    OFFSET 8.409438 0 -5.917753
    CHANNELS 3 Zrotation Yrotation Xrotation
    JOINT LeftLeg
    {
      OFFSET 0 0 -42.358652
      CHANNELS 3 Zrotation Yrotation Xrotation
      JOINT LeftFoot
      {
        OFFSET 0 0 -39.357303
        CHANNELS 3 Zrotation Yrotation Xrotation
      }
    }
  }
  JOINT RightThigh
  {
    OFFSET -8.409438 0 -5.917753
    CHANNELS 3 Zrotation Yrotation Xrotation
    JOINT RightLeg
    {
      OFFSET 0 0 -42.358652
      CHANNELS 3 Zrotation Yrotation Xrotation
      JOINT RightFoot
      {
        OFFSET 0 0 -39.357303
        CHANNELS 3 Zrotation Yrotation Xrotation
      }
    }
  }
  JOINT SpineLow
  {
    OFFSET 0 0 4.719101
    CHANNELS 3 Zrotation Yrotation Xrotation
    JOINT SpineMid
    {
      OFFSET 0 0 12.899191
      CHANNELS 3 Zrotation Yrotation Xrotation
      JOINT Chest
      {
        OFFSET 0 0 12.899191
        CHANNELS 3 Zrotation Yrotation Xrotation
        JOINT LeftShoulder
        {
          OFFSET 7.550562 1.41573 9.438202
          CHANNELS 3 Zrotation Yrotation Xrotation
          JOINT LeftArm
          {
            OFFSET 9.155056 0 4.247191
            CHANNELS 3 Zrotation Yrotation Xrotation
            JOINT LeftForearm
            {
              OFFSET 0 0 25.771955
              CHANNELS 3 Zrotation Yrotation Xrotation
              JOINT LeftHand
              {
                OFFSET 0 0 25.197169
                CHANNELS 3 Zrotation Yrotation Xrotation
              }
            }
          }
        }
        JOINT RightShoulder
        {
          OFFSET -7.550562 1.41573 9.438202
          CHANNELS 3 Zrotation Yrotation Xrotation
          JOINT RightArm
          {
            OFFSET -9.155056 0 4.247191
            CHANNELS 3 Zrotation Yrotation Xrotation
            JOINT RightForearm
            {
              OFFSET 0 0 -25.771955
              CHANNELS 3 Zrotation Yrotation Xrotation
              JOINT RightHand
              {
                OFFSET 0 0 -25.197169
                CHANNELS 3 Zrotation Yrotation Xrotation
              }
            }
          }
        }
        JOINT Neck
        {
          OFFSET 0 0 15.101124
          CHANNELS 3 Zrotation Yrotation Xrotation
          JOINT Head
          {
            OFFSET 0 0 11.325843
            CHANNELS 3 Zrotation Yrotation Xrotation
            End Site
            {
              OFFSET 0 0 14.157303
            }
          }
        }
      }
    }
  }
}
MOTION
Frames: 18
Frame Time: 0.0
0.0  89.887642  0.0  2.662146  -23.127276  -96.689313  8.40891  -13.682568  2.229639  -1.002829  6.007628  20.800433  1.254676  0.996334  0.446965  2.217934  8.954954  -1.071817  -10.580122  5.695741  7.19877  3.071886  0.497641  -0.998411  0.69859  -0.658555  0.643453  1.892286  -1.818365  1.740025  1.892286  -1.818365  1.740024  -1.789881  13.879175  0.68192  132.798947  46.412559  -177.978578  -34.049598  11.499902  48.945527  69.979867  2.394642  -0.777038  -4.642312  -2.484569  15.873475  99.245315  34.024238  41.261539  1.358431  6.015338  -23.329853  89.750747  3.403676  -15.998847  2.3509  7.228862  16.334246  1.567954  5.489108  12.206662  
0.0  89.887642  0.0  2.698085  -22.938429  -96.725727  8.338204  -13.546159  2.31547  -1.062455  5.899448  20.658824  1.245065  0.984734  0.432144  1.827454  9.111994  -0.999681  -10.770167  5.623339  6.998109  3.071466  0.469055  -0.98084  0.713478  -0.654137  0.631294  1.933433  -1.806325  1.706497  1.933433  -1.806325  1.706497  -2.116381  14.526626  0.805672  132.164991  46.87742  -177.227617  -32.317659  9.923053  47.442528  71.359774  1.709938  -0.933683  -4.719342  -2.590867  15.980077  99.440837  33.958841  41.310869  1.4341  6.112973  -22.731714  89.58443  3.58863  -15.961646  2.34377  7.178639  16.507481  1.561984  5.451982  12.336927  
0.0  89.887642  0.0  2.727977  -22.660162  -96.702241  7.912969  -13.364599  2.195619  -1.027133  5.777117  20.618633  1.340086  1.012231  0.485047  1.35134  9.323305  -0.995404  -11.013581  5.477132  6.815071  3.098029  0.459621  -0.974998  0.70694  -0.647095  0.609384  1.91633  -1.786283  1.646978  1.91633  -1.786283  1.646978  -2.664469  15.059122  0.796607  132.148282  47.179273  -176.306831  -30.582416  8.433319  45.994994  72.18578  1.176258  -0.790393  -4.731301  -2.706448  16.114885  99.631704  33.940529  41.354944  1.540038  6.177381  -22.131071  89.350781  3.778014  -15.834277  2.286865  7.145112  16.637152  1.51876  5.425834  12.434996  
0.0  89.887642  0.0  2.767174  -22.555408  -96.757349  7.823406  -13.230883  2.309317  -1.041142  5.691643  20.514975  1.345864  0.995262  0.463063  0.986334  9.478971  -0.939718  -11.057608  5.378244  6.654235  3.096553  0.439965  -0.968024  0.72449  -0.642138  0.602446  1.964616  -1.772963  1.627678  1.964616  -1.772963  1.627677  -3.015275  15.535486  0.853084  132.261259  47.43976  -175.250628  -28.879145  7.185482  44.625652  72.561394  0.817129  -0.642815  -4.791901  -2.821038  16.196124  99.964241  33.866661  41.448043  1.593874  6.225738  -21.545334  89.100719  3.937623  -15.714336  2.26007  7.108557  16.752105  1.498376  5.398155  12.521713  
0.0  89.887642  0.0  2.804189  -22.311187  -96.744601  7.387508  -13.059216  2.234107  -0.930808  5.588776  20.517261  1.407483  1.022268  0.488103  0.362716  9.632046  -0.988764  -11.003964  5.313713  6.50587  3.157244  0.413013  -0.952051  0.710105  -0.630912  0.582233  1.926089  -1.741348  1.573128  1.926089  -1.741348  1.573127  -3.308947  15.957442  0.834777  132.606239  47.603811  -174.165801  -27.261898  6.201679  43.251762  72.955919  0.54528  -0.516823  -4.775592  -2.921226  16.331566  100.363435  33.831461  41.583418  1.590841  6.22129  -20.999519  88.907145  4.081898  -15.615956  2.140715  7.084087  16.801224  1.409024  5.376708  12.560075  
0.0  89.887642  0.0  2.850226  -22.321535  -96.847806  7.3564  -12.960475  2.381276  -0.888257  5.537494  20.466122  1.401149  1.009582  0.466714  0.122032  9.758996  -0.88248  -11.077837  5.236601  6.344886  3.168265  0.39558  -0.943995  0.730344  -0.621698  0.585286  1.981552  -1.716734  1.581204  1.981551  -1.716734  1.581204  -3.641784  16.370675  0.725779  133.200682  47.757336  -173.053967  -25.610274  5.471455  41.907216  73.745043  0.183773  -0.414949  -4.744487  -2.995345  16.452312  100.850303  33.796263  41.756847  1.536136  6.20776  -20.500119  88.774751  4.199566  -15.523937  2.128067  7.062117  16.861647  1.399474  5.360113  12.605659  
0.0  89.887642  0.0  2.872294  -22.141912  -96.857215  6.95878  -12.832451  2.306696  -0.863832  5.448331  20.458477  1.550144  1.083068  0.556405  -0.385796  9.885894  -0.912015  -11.281597  5.165592  6.173893  3.211505  0.371867  -0.917322  0.695125  -0.607686  0.561516  1.886198  -1.676929  1.517533  1.886198  -1.676929  1.517533  -3.716281  16.785604  0.758893  133.795746  47.886716  -171.992558  -23.996357  4.883729  40.70013  74.979513  -0.16944  -0.180472  -4.525694  -3.035645  16.700981  101.373775  33.762747  41.943705  1.391665  6.197353  -20.033894  88.706551  4.373164  -15.454518  2.136286  7.056527  16.931095  1.404999  5.356427  12.657631  
0.0  89.887642  0.0  2.917819  -22.191751  -96.996388  6.910832  -12.774263  2.446994  -0.798742  5.447436  20.487421  1.54273  1.075002  0.544593  -0.540195  9.962822  -0.785997  -11.353688  5.137169  6.042446  3.215449  0.353641  -0.901407  0.710061  -0.595243  0.572721  1.927022  -1.643589  1.548136  1.927022  -1.643589  1.548136  -3.945193  17.147235  0.805006  134.418703  47.981616  -170.951395  -22.514416  4.270907  39.70164  75.910802  -0.415788  0.039378  -4.434053  -3.046308  16.861487  101.83814  33.774408  42.065007  1.318708  6.227715  -19.612736  88.641986  4.526204  -15.401962  2.127831  7.053346  16.977192  1.398223  5.353991  12.692283  
0.0  89.887642  0.0  2.931515  -22.203945  -97.096732  6.675477  -12.742388  2.453074  -0.711237  5.450446  20.584171  1.60746  1.107298  0.580576  -0.726113  10.021039  -0.687702  -11.688658  5.079629  5.840774  3.455795  0.367278  -0.836281  0.700974  -0.580312  0.574476  1.902475  -1.60262  1.55358  1.902475  -1.60262  1.553581  -4.225491  17.429223  0.764433  134.909368  47.943934  -170.240773  -21.261798  3.688292  38.831215  76.275799  -0.619922  0.132207  -4.030229  -3.066127  17.194592  102.212809  33.876452  42.259522  1.105939  6.22263  -19.26959  88.515141  4.700807  -15.30919  2.112042  7.053488  17.030741  1.385767  5.353876  12.732572  
0.0  89.887642  0.0  2.958334  -22.260337  -97.18859  6.603846  -12.7186  2.528805  -0.659173  5.492866  20.65774  1.608551  1.101881  0.567315  -0.894692  10.05364  -0.619431  -11.633261  5.056444  5.730287  3.448217  0.354841  -0.815281  0.711895  -0.561953  0.587704  1.932432  -1.553086  1.589996  1.932432  -1.553086  1.589996  -4.425044  17.6018  0.677481  135.022462  47.799997  -169.663581  -20.327706  3.133116  38.018236  76.351484  -0.757773  0.299523  -3.948527  -3.12764  17.319526  102.597604  33.943407  42.378611  1.080944  6.290655  -18.981051  88.439336  4.847085  -15.223161  2.089929  7.049185  17.068809  1.368876  5.35018  12.761376  
0.0  89.887642  0.0  2.939627  -22.307684  -97.238546  6.521951  -12.728874  2.541724  -0.586537  5.557156  20.793173  1.586492  1.081677  0.526092  -1.070422  10.051124  -0.574002  -11.566204  5.034738  5.625278  3.428547  0.33837  -0.799666  0.708782  -0.547284  0.589974  1.92421  -1.512988  1.596692  1.92421  -1.512988  1.596692  -4.649329  17.716139  0.604998  135.153345  47.59345  -169.173809  -19.68899  2.632762  37.220799  76.479201  -0.863899  0.56902  -3.666983  -3.200075  17.591892  103.015951  34.020539  42.591205  0.86103  6.318353  -18.728649  88.333864  4.982659  -15.07899  2.072962  7.047971  17.129739  1.355491  5.349035  12.807219  
0.0  89.887642  0.0  2.94333  -22.378361  -97.297638  6.468152  -12.734209  2.577634  -0.544097  5.617816  20.897151  1.577434  1.06993  0.494722  -1.209175  10.046691  -0.529945  -11.509764  5.011272  5.52827  3.421589  0.330153  -0.785125  0.709001  -0.53466  0.594053  1.92501  -1.478611  1.608194  1.92501  -1.478612  1.608194  -4.737047  17.832849  0.635012  135.248084  47.403916  -168.593335  -19.139582  2.177585  36.409933  76.915601  -0.997133  0.966209  -3.581749  -3.263548  17.751951  103.337525  34.133367  42.680992  0.924704  6.410429  -18.509152  88.225611  5.10489  -14.918797  2.091944  7.06813  17.199675  1.368334  5.364981  12.859225  
0.0  89.887642  0.0  2.920999  -22.415808  -97.336163  6.486767  -12.749444  2.638264  -0.495482  5.691401  21.004296  1.463448  1.029295  0.402374  -1.41592  10.04769  -0.504831  -11.367296  4.981316  5.457354  3.407793  0.311359  -0.782603  0.698341  -0.526178  0.596857  1.896008  -1.455253  1.616339  1.896008  -1.455253  1.61634  -4.772189  17.893976  0.660976  135.477335  47.171786  -167.981946  -18.461282  1.746739  35.707235  77.645281  -1.107613  1.444024  -3.349292  -3.30938  17.986871  103.633761  34.271313  42.847793  0.80503  6.442821  -18.341575  88.063575  5.219706  -14.71905  2.101532  7.095821  17.269748  1.373907  5.386321  12.911378  
0.0  89.887642  0.0  2.9175  -22.50153  -97.4091  6.479103  -12.772732  2.687592  -0.422823  5.74619  21.129201  1.372437  1.001542  0.329409  -1.509991  10.038095  -0.428876  -11.35161  4.938063  5.374973  3.453324  0.308058  -0.793871  0.691734  -0.519366  0.60526  1.877923  -1.436713  1.639644  1.877923  -1.436713  1.639644  -4.744262  17.95096  0.735764  135.752646  47.014727  -167.350395  -17.639227  1.41964  35.112327  78.281894  -1.246424  1.75714  -3.268095  -3.323882  18.142653  103.812442  34.426907  42.872111  0.874872  6.528941  -18.240353  88.019459  5.29728  -14.575452  2.158971  7.14363  17.336733  1.414794  5.424114  12.960497  
0.0  89.887642  0.0  2.912618  -22.560894  -97.470897  6.566308  -12.778385  2.743416  -0.428768  5.773346  21.212323  1.257541  0.987554  0.262838  -1.659424  10.041925  -0.387213  -11.472251  4.90431  5.269559  3.663604  0.309827  -0.785985  0.685149  -0.512299  0.612547  1.859934  -1.417441  1.659902  1.859934  -1.41744  1.659902  -4.744425  18.008812  0.828767  136.10728  46.887905  -166.744128  -16.760664  1.109848  34.548946  78.600098  -1.425335  1.931572  -3.270543  -3.318196  18.3018  104.026623  34.559413  42.974685  0.83349  6.556002  -18.247895  87.965982  5.362882  -14.393046  2.193599  7.190103  17.403477  1.438609  5.460265  13.009698  
0.0  89.887642  0.0  2.905094  -22.664569  -97.551387  6.642781  -12.812092  2.789426  -0.346293  5.794237  21.364167  1.085616  0.956394  0.169771  -1.705269  10.023075  -0.303912  -11.509163  4.872144  5.198609  3.762298  0.30049  -0.800093  0.683987  -0.507798  0.620081  1.856706  -1.405319  1.680644  1.856706  -1.405319  1.680643  -4.728058  18.072105  0.948743  136.346032  46.786722  -166.225982  -16.0133  0.845077  34.035859  78.819438  -1.521502  2.05175  -3.203594  -3.31426  18.505051  103.941146  34.787219  42.91914  0.905068  6.618637  -18.320428  87.982893  5.362256  -14.233746  2.256016  7.236415  17.477798  1.483163  5.497131  13.064242  
0.0  89.887642  0.0  2.900473  -22.642044  -97.58098  6.512608  -12.809894  2.722566  -0.132422  5.816714  21.640866  0.944273  0.8942  0.077255  -2.051197  10.0188  -0.351923  -11.423021  4.860347  5.165716  3.935065  0.290937  -0.796299  0.661058  -0.500613  0.618077  1.794247  -1.38505  1.675847  1.794247  -1.38505  1.675848  -4.815654  18.111113  1.039509  136.72404  46.624117  -165.839488  -15.461325  0.549767  33.528836  78.959665  -1.433208  1.96146  -3.15009  -3.300847  18.710406  103.80835  35.004738  42.936176  0.905096  6.639635  -18.572389  88.023834  5.32075  -14.059191  2.340295  7.280727  17.569407  1.54395  5.533219  13.131486  
0.0  89.887642  0.0  2.903719  -22.703496  -97.684599  6.546414  -12.843185  2.800707  -0.062659  5.865068  21.795999  0.836507  0.847493  0.01049  -2.16362  10.012734  -0.272271  -11.417109  4.84843  5.135701  3.998179  0.278787  -0.812691  0.65282  -0.495892  0.626482  1.771669  -1.372164  1.699119  1.771669  -1.372165  1.699119  -4.802972  18.175295  1.217119  136.834392  46.514517  -165.506033  -15.103704  0.296059  33.057801  79.116762  -1.54464  2.076152  -3.05713  -3.279401  18.951211  103.309588  35.296228  42.744234  1.030568  6.743727  -18.872582  88.075594  5.243942  -13.873174  2.412906  7.325936  17.65049  1.596073  5.56962  13.19096  
